<svg width="40" height="40" viewBox="0 0 40 40" fill="none" xmlns="http://www.w3.org/2000/svg">
<path fill-rule="evenodd" clip-rule="evenodd" d="M19.9931 1C15.2747 1.00245 10.7111 2.6736 7.11816 5.71464C3.52525 8.75568 1.13738 12.9683 0.381526 17.5993C-0.374333 22.2302 0.5511 26.9775 2.99237 30.9922C5.43363 35.007 9.23153 38.0274 13.707 39.5135C14.6943 39.6967 15.0662 39.0848 15.0662 38.5645C15.0662 38.0441 15.0465 36.5355 15.0399 34.8862C9.5107 36.0807 8.34235 32.553 8.34235 32.553C7.44057 30.2623 6.13726 29.6601 6.13726 29.6601C4.3337 28.4362 6.27221 28.4591 6.27221 28.4591C8.26995 28.5999 9.31983 30.4979 9.31983 30.4979C11.0905 33.5183 13.9702 32.6446 15.1024 32.1341C15.2801 30.8546 15.7969 29.9841 16.3662 29.49C11.9495 28.9925 7.30891 27.2974 7.30891 19.725C7.28154 17.7611 8.01446 15.8619 9.35603 14.4203C9.15198 13.9229 8.4707 11.9136 9.5502 9.1844C9.5502 9.1844 11.2188 8.65427 15.0169 11.2101C18.2745 10.3242 21.7117 10.3242 24.9693 11.2101C28.7641 8.65427 30.4294 9.1844 30.4294 9.1844C31.5122 11.9071 30.8309 13.9164 30.6269 14.4203C31.9727 15.8621 32.7071 17.7646 32.6773 19.7315C32.6773 27.3203 28.0268 28.9925 23.6035 29.4801C24.3144 30.0954 24.9496 31.2964 24.9496 33.142C24.9496 35.7862 24.9266 37.9132 24.9266 38.5645C24.9266 39.0913 25.2853 39.7066 26.2924 39.5135C30.7683 38.0273 34.5666 35.0063 37.0078 30.9908C39.4491 26.9754 40.374 22.2274 39.6173 17.596C38.8606 12.9647 36.4715 8.75199 32.8774 5.71147C29.2833 2.67095 24.7186 1.0009 19.9997 1H19.9931Z" fill="#989ba3"/>
<path d="M7.64409 29.3754C7.60131 29.4736 7.44333 29.503 7.31497 29.4343C7.18662 29.3656 7.09118 29.238 7.13726 29.1365C7.18334 29.0351 7.33802 29.0089 7.46638 29.0776C7.59473 29.1463 7.69346 29.2772 7.64409 29.3754Z" fill="#989ba3"/>
<path d="M8.45054 30.2688C8.38238 30.3029 8.3044 30.3125 8.22995 30.2957C8.15551 30.279 8.08922 30.2371 8.04243 30.1772C7.91408 30.0397 7.88774 29.8499 7.98647 29.7648C8.08521 29.6797 8.26294 29.719 8.3913 29.8565C8.51965 29.9939 8.54927 30.1837 8.45054 30.2688Z" fill="#989ba3"/>
<path d="M9.23376 31.4043C9.11199 31.4894 8.90463 31.4043 8.78944 31.2341C8.75759 31.2036 8.73226 31.167 8.71496 31.1265C8.69765 31.086 8.68872 31.0425 8.68872 30.9985C8.68872 30.9545 8.69765 30.911 8.71496 30.8705C8.73226 30.83 8.75759 30.7934 8.78944 30.7629C8.91121 30.6811 9.11857 30.7629 9.23376 30.9298C9.34895 31.0967 9.35224 31.3192 9.23376 31.4043Z" fill="#989ba3"/>
<path d="M10.2969 32.5039C10.1883 32.625 9.96782 32.5922 9.78681 32.4286C9.60579 32.265 9.563 32.0425 9.6716 31.9246C9.78021 31.8068 10.0007 31.8396 10.1883 31.9999C10.3759 32.1603 10.4121 32.3861 10.2969 32.5039Z" fill="#989ba3"/>
<path d="M11.7878 33.1452C11.7384 33.299 11.5146 33.3678 11.2908 33.3023C11.067 33.2369 10.9189 33.0536 10.9617 32.8965C11.0045 32.7395 11.2316 32.6675 11.4587 32.7395C11.6858 32.8114 11.8306 32.9849 11.7878 33.1452Z" fill="#989ba3"/>
<path d="M13.4137 33.2565C13.4137 33.4169 13.2294 33.5543 12.9924 33.5576C12.7555 33.5609 12.5613 33.43 12.5613 33.2696C12.5613 33.1093 12.7456 32.9718 12.9825 32.9685C13.2195 32.9653 13.4137 33.0929 13.4137 33.2565Z" fill="#989ba3"/>
<path d="M14.9275 33.0046C14.9572 33.1649 14.7926 33.3318 14.5556 33.3711C14.3187 33.4104 14.1113 33.3155 14.0817 33.1584C14.0521 33.0013 14.2232 32.8311 14.4536 32.7886C14.684 32.7461 14.8979 32.8442 14.9275 33.0046Z" fill="#989ba3"/>
</svg>
