<svg width="626" height="491" viewBox="0 0 626 491" fill="none" xmlns="http://www.w3.org/2000/svg">
<rect width="626" height="491" fill="#424242"/>
<path d="M339.833 211H286.167C281.932 211 278.5 214.432 278.5 218.667V272.333C278.5 276.568 281.932 280 286.167 280H339.833C344.068 280 347.5 276.568 347.5 272.333V218.667C347.5 214.432 344.068 211 339.833 211Z" stroke="white" stroke-width="3" stroke-linecap="round" stroke-linejoin="round"/>
<path d="M299.583 237.833C302.759 237.833 305.333 235.259 305.333 232.083C305.333 228.908 302.759 226.333 299.583 226.333C296.408 226.333 293.833 228.908 293.833 232.083C293.833 235.259 296.408 237.833 299.583 237.833Z" stroke="white" stroke-width="3" stroke-linecap="round" stroke-linejoin="round"/>
<path d="M347.5 257L328.333 237.833L286.167 280" stroke="white" stroke-width="3" stroke-linecap="round" stroke-linejoin="round"/>
</svg>
