<svg width="512" height="512" viewBox="0 0 512 512" fill="none" xmlns="http://www.w3.org/2000/svg">
<g clip-path="url(#clip0_327_443)">
<path d="M0 185.295C0 120.436 0 88.0061 12.6225 63.2331C23.7255 41.4421 41.4421 23.7255 63.2331 12.6225C88.0061 0 120.436 0 185.295 0H326.705C391.564 0 423.994 0 448.767 12.6225C470.558 23.7255 488.275 41.4421 499.378 63.2331C512 88.0061 512 120.436 512 185.295V326.705C512 391.564 512 423.994 499.378 448.767C488.275 470.558 470.558 488.275 448.767 499.378C423.994 512 391.564 512 326.705 512H185.295C120.436 512 88.0061 512 63.2331 499.378C41.4421 488.275 23.7255 470.558 12.6225 448.767C0 423.994 0 391.564 0 326.705V185.295Z" fill="#001E36"/>
<path d="M149.886 335.095V170.048C149.886 168.915 150.339 168.235 151.473 168.235C168.097 168.235 184.727 167.328 201.356 167.328C236.65 166.622 271.419 186.587 271.419 224.459C271.419 275.544 226.417 283.178 184.804 283.178V334.641C185.134 336.291 183.629 336.908 182.31 336.908H151.7C150.566 337.362 149.886 336.682 149.886 335.095ZM184.804 199.294V253.252C195.665 254.338 207.824 253.967 218.135 250.531C229.85 246.966 236.274 237.407 236.274 225.366C236.736 215.207 230.608 205.643 221.082 202.015C210.453 198.078 196.14 197.405 184.804 199.294Z" fill="#31A8FF"/>
<path d="M371.41 243.279C361.317 237.993 349.403 235.798 338.079 235.798C332.223 235.798 321.981 236.369 321.981 244.413C321.981 251.881 335.066 256.152 340.347 258.015C348.963 260.963 357.352 264.817 365.061 269.804C375.366 276.524 381.613 287.369 381.613 299.73C382.467 327.89 353.15 341.097 328.556 340.539C315.728 340.539 302.155 338.875 290.464 333.284C289.33 332.604 288.65 331.47 288.65 330.11V302.224C288.65 301.369 290.069 299.848 290.69 301.091C302.418 308.04 315.943 311.037 329.463 311.519C335.652 311.829 347.149 310.826 347.149 302.451C346.455 294.124 333.909 290.47 327.422 288.395C308.425 282.063 288.423 269.073 288.423 246.907C288.423 219.508 314.951 207.005 338.986 207.005C351.23 207.005 362.559 207.383 372.771 212.22C374.387 212.758 374.585 214.109 374.585 215.62V241.692C374.585 243.32 372.76 244.179 371.41 243.279Z" fill="#31A8FF"/>
<path d="M256 475.429C247.157 475.429 238.768 472.028 232.646 465.68L46.2647 279.323C33.3405 266.4 33.3405 245.543 46.2647 232.62L232.646 46.2634C245.57 33.3408 266.43 33.3408 279.354 46.2634L465.736 232.62C478.66 245.543 478.66 266.4 465.736 279.323L279.354 465.68C273.232 471.801 264.843 475.429 256 475.429ZM238.995 459.332C248.291 468.627 263.483 468.627 272.779 459.332L459.16 272.975C468.456 263.68 468.456 248.49 459.16 239.195L272.779 52.838C263.483 43.5428 248.291 43.5428 238.995 52.838L52.6135 239.195C43.3171 248.49 43.3171 263.68 52.6135 272.975L238.995 459.332Z" fill="#31A8FF"/>
</g>
<defs>
<clipPath id="clip0_327_443">
<rect width="512" height="512" fill="white"/>
</clipPath>
</defs>
</svg>
