<svg width="261" height="261" viewBox="0 0 261 261" fill="none" xmlns="http://www.w3.org/2000/svg">
<g filter="url(#filter0_d_33_2141)">
<rect x="40.9329" y="36.8909" width="180" height="180" rx="32" fill="white"/>
<rect x="41.4329" y="37.3909" width="179" height="179" rx="31.5" stroke="#D9D9D9"/>
</g>
<path d="M88.3165 126.484C88.3165 143.463 98.1833 158.134 112.491 165.088L92.0301 109.028C89.5774 114.52 88.3119 120.469 88.3165 126.484ZM160.166 124.319C160.166 119.018 158.262 115.347 156.629 112.49C154.454 108.956 152.417 105.964 152.417 102.431C152.417 98.4883 155.407 94.8179 159.619 94.8179C159.809 94.8179 159.99 94.8416 160.176 94.8522C152.544 87.8609 142.377 83.5923 131.21 83.5923C116.225 83.5923 103.041 91.2806 95.3715 102.926C96.3779 102.956 97.3271 102.976 98.1318 102.976C102.618 102.976 109.563 102.432 109.563 102.432C111.875 102.296 112.148 105.692 109.839 105.965C109.839 105.965 107.515 106.239 104.929 106.374L120.549 152.835L129.936 124.683L123.253 106.373C120.943 106.238 118.755 105.964 118.755 105.964C116.443 105.829 116.714 102.295 119.026 102.431C119.026 102.431 126.109 102.976 130.324 102.976C134.81 102.976 141.755 102.431 141.755 102.431C144.069 102.295 144.341 105.691 142.031 105.964C142.031 105.964 139.702 106.238 137.121 106.373L152.622 152.482L156.9 138.185C158.755 132.253 160.166 127.991 160.166 124.319Z" fill="#00749A"/>
<path d="M131.962 130.236L119.093 167.631C123.027 168.791 127.108 169.379 131.21 169.379C136.205 169.379 140.995 168.515 145.454 166.948C145.334 166.761 145.232 166.563 145.148 166.357L131.962 130.236ZM168.847 105.905C169.031 107.271 169.136 108.739 169.136 110.316C169.136 114.668 168.323 119.561 165.874 125.679L152.772 163.56C165.524 156.124 174.101 142.309 174.101 126.484C174.113 119.291 172.305 112.212 168.847 105.905Z" fill="#00749A"/>
<path d="M131.21 76.4851C103.64 76.4851 81.2092 98.9144 81.2092 126.484C81.2092 154.057 103.639 176.486 131.21 176.486C158.778 176.486 181.213 154.057 181.213 126.484C181.212 98.9144 158.778 76.4851 131.21 76.4851ZM131.21 174.193C104.904 174.193 83.5019 152.791 83.5019 126.484C83.5019 100.179 104.904 78.7786 131.21 78.7786C157.514 78.7786 178.915 100.179 178.915 126.484C178.915 152.791 157.513 174.193 131.21 174.193Z" fill="#00749A"/>
<defs>
<filter id="filter0_d_33_2141" x="0.932861" y="0.890869" width="260" height="260" filterUnits="userSpaceOnUse" color-interpolation-filters="sRGB">
<feFlood flood-opacity="0" result="BackgroundImageFix"/>
<feColorMatrix in="SourceAlpha" type="matrix" values="0 0 0 0 0 0 0 0 0 0 0 0 0 0 0 0 0 0 127 0" result="hardAlpha"/>
<feOffset dy="4"/>
<feGaussianBlur stdDeviation="20"/>
<feComposite in2="hardAlpha" operator="out"/>
<feColorMatrix type="matrix" values="0 0 0 0 0.0367917 0 0 0 0 0.0348958 0 0 0 0 0.0484375 0 0 0 0.1 0"/>
<feBlend mode="normal" in2="BackgroundImageFix" result="effect1_dropShadow_33_2141"/>
<feBlend mode="normal" in="SourceGraphic" in2="effect1_dropShadow_33_2141" result="shape"/>
</filter>
</defs>
</svg>
